<svg xmlns="http://www.w3.org/2000/svg" xmlns:xlink="http://www.w3.org/1999/xlink" xmlns:lucid="lucid" width="968.74" height="1000"><g transform="translate(-537.2644805503666 -240)" lucid:page-tab-id="0_0"><path d="M0 0h1870.87v1322.83H0z" fill="#fff"/><path d="M607.26 626c0-3.3 2.7-6 6-6h148c3.32 0 6 2.7 6 6v48c0 3.3-2.68 6-6 6h-148c-3.3 0-6-2.7-6-6z" stroke="#3a414a" fill="#ffd53a"/><use xlink:href="#a" transform="matrix(1,0,0,1,619.2644805503666,632) translate(52.907407407407405 22.27777777777778)"/><path d="M682.46 733.6c2.66-2 6.95-2 9.6 0l70.4 52.8c2.66 2 2.66 5.2 0 7.2l-70.4 52.8c-2.65 2-6.94 2-9.6 0l-70.4-52.8c-2.65-2-2.65-5.2 0-7.2z" stroke="#3a414a" fill="#ffd53a"/><use xlink:href="#b" transform="matrix(1,0,0,1,612.2644805503666,735) translate(53.73956790123457 59.02777777777778)"/><use xlink:href="#c" transform="matrix(1,0,0,1,612.2644805503666,735) translate(64.78895061728396 59.02777777777778)"/><use xlink:href="#d" transform="matrix(1,0,0,1,612.2644805503666,735) translate(83.92475308641976 59.02777777777778)"/><path d="M687.26 681v34.3" stroke="#3a414a" fill="none"/><path d="M687.76 681h-1v-.5h1z" stroke="#3a414a" stroke-width=".05" fill="#3a414a"/><path d="M687.26 730.05l-4.63-14.26h9.27z" stroke="#3a414a" fill="#3a414a"/><path d="M803.74 790.5h-38.38v-1h38.38zm59.94 0h-22.5v-1h22.5z" stroke="#3a414a" stroke-width=".05" fill="#3a414a"/><path d="M765.37 790.5h-.43l-.16-1h.6z" fill="#3a414a"/><path d="M765.4 790.52h-.48l-.17-1.04h.65zm-.6-1l.16.96h.4v-.96z" stroke="#3a414a" stroke-width=".05" fill="#3a414a"/><path d="M878.44 790l-14.26 4.64v-9.28z" fill="#3a414a"/><path d="M880.06 790l-16.38 5.32v-10.64zm-15.38 3.95l12.14-3.95-12.14-3.95z" stroke="#3a414a" stroke-width=".05" fill="#3a414a"/><use xlink:href="#e" transform="matrix(1,0,0,1,803.7441656042964,779.3333333333334) translate(0 14.222222222222223)"/><path d="M681.82 402.5c3-1.37 7.88-1.37 10.9 0l119.1 55c3 1.37 3 3.63 0 5l-119.1 55c-3.02 1.37-7.9 1.37-10.9 0l-119.1-55c-3.02-1.37-3.02-3.63 0-5z" stroke="#3a414a" fill="#cba8b1"/><use xlink:href="#f" transform="matrix(1,0,0,1,562.2644805503666,405) translate(47.31981481481482 59.02777777777778)"/><use xlink:href="#g" transform="matrix(1,0,0,1,562.2644805503666,405) translate(112.75191358024692 59.02777777777778)"/><use xlink:href="#h" transform="matrix(1,0,0,1,562.2644805503666,405) translate(134.91240740740741 59.02777777777778)"/><path d="M856.83 460.5h-42v-1h42zm63.55 0h-26.12v-1h26.12z" stroke="#3a414a" stroke-width=".05" fill="#3a414a"/><path d="M814.84 460.5h-.68l.33-1h.34z" fill="#3a414a"/><path d="M814.86 460.52h-.73l.34-1.04h.4zm-.36-1l-.3.96h.6v-.96z" stroke="#3a414a" stroke-width=".05" fill="#3a414a"/><path d="M935.15 460l-14.27 4.64v-9.28z" fill="#3a414a"/><path d="M936.76 460l-16.38 5.32v-10.64zm-15.38 3.95l12.15-3.95-12.15-3.95z" stroke="#3a414a" stroke-width=".05" fill="#3a414a"/><use xlink:href="#e" transform="matrix(1,0,0,1,856.8276160754066,449.3333333333333) translate(0 14.222222222222223)"/><path d="M1065.26 420c17.68 0 32 17.9 32 40s-14.32 40-32 40h-96c-17.67 0-32-17.9-32-40s14.33-40 32-40z" stroke="#3a414a" fill="#fff"/><use xlink:href="#i" transform="matrix(1,0,0,1,942.2644805503666,425) translate(56.48148148148148 39.65277777777778)"/><path d="M687.76 603.12h-1v-23.25h1zm0-44.58h-1V519.4h1z" stroke="#3a414a" stroke-width=".05" fill="#3a414a"/><path d="M687.76 519.42h-1v-.5l1-.04z" fill="#3a414a"/><path d="M687.8 519.44h-1.06v-.54l1.05-.04zm-1-.5v.45h.94v-.5z" stroke="#3a414a" stroke-width=".05" fill="#3a414a"/><path d="M687.26 617.88l-4.63-14.26h9.27z" fill="#3a414a"/><path d="M687.26 619.5l-5.32-16.38h10.65zm-3.94-15.38l3.94 12.14 3.95-12.14z" stroke="#3a414a" stroke-width=".05" fill="#3a414a"/><use xlink:href="#j" transform="matrix(1,0,0,1,664.5731225256752,558.5350449070155) translate(0 14.222222222222223)"/><path d="M1012.06 712.98c2.87-1.65 7.54-1.65 10.4 0l129.6 74.04c2.87 1.65 2.87 4.3 0 5.96l-129.6 74.04c-2.86 1.65-7.53 1.65-10.4 0l-129.6-74.04c-2.86-1.65-2.86-4.3 0-5.96z" stroke="#3a414a" fill="#cba8b1"/><use xlink:href="#k" transform="matrix(1,0,0,1,882.2644805503666,715) translate(92.50500000000001 45.90277777777778)"/><use xlink:href="#l" transform="matrix(1,0,0,1,882.2644805503666,715) translate(147.9370987654321 45.90277777777778)"/><use xlink:href="#m" transform="matrix(1,0,0,1,882.2644805503666,715) translate(158.9864814814815 45.90277777777778)"/><use xlink:href="#n" transform="matrix(1,0,0,1,882.2644805503666,715) translate(41.239567901234565 72.56944444444446)"/><use xlink:href="#o" transform="matrix(1,0,0,1,882.2644805503666,715) translate(106.67166666666667 72.56944444444446)"/><use xlink:href="#p" transform="matrix(1,0,0,1,882.2644805503666,715) translate(80.1593209876543 99.23611111111111)"/><use xlink:href="#q" transform="matrix(1,0,0,1,882.2644805503666,715) translate(104.85067901234567 99.23611111111111)"/><use xlink:href="#l" transform="matrix(1,0,0,1,882.2644805503666,715) translate(160.28277777777777 99.23611111111111)"/><use xlink:href="#m" transform="matrix(1,0,0,1,882.2644805503666,715) translate(171.33216049382716 99.23611111111111)"/><use xlink:href="#r" transform="matrix(1,0,0,1,882.2644805503666,715) translate(104.78895061728396 125.9027777777778)"/><path d="M1188.27 790.5h-33.3v-1h33.3zm54.85 0h-17.42v-1h17.42z" stroke="#3a414a" stroke-width=".05" fill="#3a414a"/><path d="M1154.98 790.5h-.52v-1h.52z" fill="#3a414a"/><path d="M1155 790.52h-.56v-1.04h.57zm-.5-1v.96h.46v-.96z" stroke="#3a414a" stroke-width=".05" fill="#3a414a"/><path d="M1257.88 790l-14.26 4.64v-9.28z" fill="#3a414a"/><path d="M1259.5 790l-16.38 5.32v-10.64zm-15.38 3.95l12.14-3.95-12.14-3.95z" stroke="#3a414a" stroke-width=".05" fill="#3a414a"/><use xlink:href="#e" transform="matrix(1,0,0,1,1188.2686999645362,779.3333333333334) translate(0 14.222222222222223)"/><path d="M1260 758.5c0-3.3 2.7-6 6-6h148c3.3 0 6 2.7 6 6v63c0 3.3-2.7 6-6 6h-148c-3.3 0-6-2.7-6-6z" stroke="#3a414a" fill="#a5c8d0"/><use xlink:href="#s" transform="matrix(1,0,0,1,1272,764.5) translate(0.8395061728395206 30.52777777777778)"/><use xlink:href="#l" transform="matrix(1,0,0,1,1272,764.5) translate(67.38271604938272 30.52777777777778)"/><use xlink:href="#t" transform="matrix(1,0,0,1,1272,764.5) translate(78.4320987654321 30.52777777777778)"/><path d="M1017.76 924.78h-1v-9.16h1zm0-30.5h-1v-25.03h1z" stroke="#3a414a" stroke-width=".05" fill="#3a414a"/><path d="M1017.76 869.27h-1v-.57l.44.06.56-.07z" fill="#3a414a"/><path d="M1017.8 869.3h-1.06v-.63l.46.06.6-.07zm-.6-.5l-.4-.07v.5h.94v-.5z" stroke="#3a414a" stroke-width=".05" fill="#3a414a"/><path d="M1017.26 939.54l-4.63-14.26h9.27z" fill="#3a414a"/><path d="M1017.26 941.16l-5.32-16.38h10.65zm-3.94-15.38l3.94 12.14 3.95-12.14z" stroke="#3a414a" stroke-width=".05" fill="#3a414a"/><use xlink:href="#j" transform="matrix(1,0,0,1,994.5731225256752,894.289296270049) translate(0 14.222222222222223)"/><path d="M1011.9 942.68c2.96-1.48 7.77-1.48 10.73 0l109.27 54.64c2.96 1.48 2.96 3.88 0 5.36l-109.27 54.64c-2.96 1.48-7.77 1.48-10.73 0l-109.27-54.64c-2.96-1.48-2.96-3.88 0-5.36z" stroke="#3a414a" fill="#cba8b1"/><use xlink:href="#k" transform="matrix(1,0,0,1,902.2644805503666,945) translate(84.8506790123457 31.52777777777778)"/><use xlink:href="#u" transform="matrix(1,0,0,1,902.2644805503666,945) translate(140.28277777777777 31.52777777777778)"/><use xlink:href="#v" transform="matrix(1,0,0,1,902.2644805503666,945) translate(27.412407407407397 58.19444444444445)"/><use xlink:href="#n" transform="matrix(1,0,0,1,902.2644805503666,945) translate(52.103765432098754 58.19444444444445)"/><use xlink:href="#g" transform="matrix(1,0,0,1,902.2644805503666,945) translate(117.53586419753086 58.19444444444445)"/><use xlink:href="#w" transform="matrix(1,0,0,1,902.2644805503666,945) translate(139.69635802469134 58.19444444444445)"/><use xlink:href="#m" transform="matrix(1,0,0,1,902.2644805503666,945) translate(184.07907407407407 58.19444444444445)"/><use xlink:href="#r" transform="matrix(1,0,0,1,902.2644805503666,945) translate(84.78895061728396 84.86111111111111)"/><path d="M1168.2 1000.5h-33.35v-1h33.36zm54.92 0h-17.48v-1h17.48z" stroke="#3a414a" stroke-width=".05" fill="#3a414a"/><path d="M1134.86 1000.5h-.6l.18-1h.42z" fill="#3a414a"/><path d="M1134.9 1000.52h-.67l.2-1.04h.46zm-.44-1l-.17.96h.54v-.96z" stroke="#3a414a" stroke-width=".05" fill="#3a414a"/><path d="M1237.88 1000l-14.26 4.64v-9.28z" fill="#3a414a"/><path d="M1239.5 1000l-16.38 5.32v-10.64zm-15.38 3.95l12.14-3.95-12.14-3.95z" stroke="#3a414a" stroke-width=".05" fill="#3a414a"/><use xlink:href="#e" transform="matrix(1,0,0,1,1168.208996202446,989.3333333333334) translate(0 14.222222222222223)"/><path d="M1240 966c0-3.3 2.7-6 6-6h188c3.3 0 6 2.7 6 6v68c0 3.3-2.7 6-6 6h-188c-3.3 0-6-2.7-6-6z" stroke="#3a414a" fill="#a5c8d0"/><use xlink:href="#s" transform="matrix(1,0,0,1,1252,972) translate(18.4320987654321 31.77777777777778)"/><use xlink:href="#l" transform="matrix(1,0,0,1,1252,972) translate(84.9753086419753 31.77777777777778)"/><use xlink:href="#x" transform="matrix(1,0,0,1,1252,972) translate(96.02469135802468 31.77777777777778)"/><path d="M1260 1146c0-3.3 2.7-6 6-6h148c3.3 0 6 2.7 6 6v68c0 3.3-2.7 6-6 6h-148c-3.3 0-6-2.7-6-6z" stroke="#3a414a" fill="#ffd53a"/><use xlink:href="#b" transform="matrix(1,0,0,1,1272,1152) translate(37.81481481481482 31.77777777777778)"/><use xlink:href="#y" transform="matrix(1,0,0,1,1272,1152) translate(48.8641975308642 31.77777777777778)"/><use xlink:href="#z" transform="matrix(1,0,0,1,1272,1152) translate(68 31.77777777777778)"/><path d="M1421 790h73c3.3 0 6 2.7 6 6v398.44c0 3.32-2.7 6-6 6h-57.12" stroke="#3a414a" fill="none"/><path d="M1421 790.5h-.5v-1h.5z" stroke="#3a414a" stroke-width=".05" fill="#3a414a"/><path d="M1422.12 1200.44l14.26-4.63v9.28z" stroke="#3a414a" fill="#3a414a"/><path d="M1441 1000h33.5c3.3 0 6 2.7 6 6v145.78c0 3.3-2.7 6-6 6h-37.62" stroke="#3a414a" fill="none"/><path d="M1441 1000.5h-.5v-1h.5z" stroke="#3a414a" stroke-width=".05" fill="#3a414a"/><path d="M1422.12 1157.78l14.26-4.64v9.27z" stroke="#3a414a" fill="#3a414a"/><path d="M593.28 790.5h-17.55l-2.83.77-1.96 1.96-.77 2.84v377.86l.77 2.84 1.96 1.96 2.83.77H1259v1H575.6l-3.22-.87-2.34-2.34-.87-3.23V795.93l.87-3.22 2.34-2.33 3.22-.87h17.68z" stroke="#3a414a" stroke-width=".05" fill="#3a414a"/><path d="M1259.5 1180.5h-.5v-1h.5z" fill="#3a414a"/><path d="M1259.53 1180.53h-.57v-1.06h.57zm-.52-1v.94h.47v-.94z" stroke="#3a414a" stroke-width=".05" fill="#3a414a"/><path d="M608.05 790l-14.27 4.64v-9.28z" fill="#3a414a"/><path d="M609.67 790l-16.4 5.32v-10.64zm-15.4 3.95l12.16-3.95-12.15-3.95z" stroke="#3a414a" stroke-width=".05" fill="#3a414a"/><path d="M735.26 260c17.68 0 32 17.9 32 40s-14.32 40-32 40h-96c-17.67 0-32-17.9-32-40s14.33-40 32-40z" stroke="#3a414a" fill="#fff"/><g><use xlink:href="#A" transform="matrix(1,0,0,1,612.2644805503666,265) translate(18.240740740740733 39.65277777777778)"/><use xlink:href="#B" transform="matrix(1,0,0,1,612.2644805503666,265) translate(72.5 39.65277777777778)"/></g><path d="M687.26 341v43.7" stroke="#3a414a" fill="none"/><path d="M687.76 341h-1v-.5h1z" stroke="#3a414a" stroke-width=".05" fill="#3a414a"/><path d="M687.26 399.48l-4.63-14.27h9.27z" stroke="#3a414a" fill="#3a414a"/><path d="M687.76 943.12h-1v-28.54h1zm0-49.87h-1v-44.42h1z" stroke="#3a414a" stroke-width=".05" fill="#3a414a"/><path d="M687.76 848.34v.5h-1v-.52z" fill="#3a414a"/><path d="M687.8 848.32v.55h-1.06v-.58zm-1 .5h.94v-.45l-.95-.03z" stroke="#3a414a" stroke-width=".05" fill="#3a414a"/><path d="M687.26 957.88l-4.63-14.26h9.27z" fill="#3a414a"/><path d="M687.26 959.5l-5.32-16.38h10.65zm-3.94-15.38l3.94 12.14 3.95-12.14z" stroke="#3a414a" stroke-width=".05" fill="#3a414a"/><g><use xlink:href="#j" transform="matrix(1,0,0,1,664.5731225256752,893.2479061200861) translate(0 14.222222222222223)"/></g><path d="M735.26 960c17.68 0 32 17.9 32 40s-14.32 40-32 40h-96c-17.67 0-32-17.9-32-40s14.33-40 32-40z" stroke="#3a414a" fill="#fff"/><g><use xlink:href="#C" transform="matrix(1,0,0,1,612.2644805503666,965) translate(15.221049382716041 26.52777777777778)"/><use xlink:href="#D" transform="matrix(1,0,0,1,612.2644805503666,965) translate(60.776604938271596 26.52777777777778)"/><use xlink:href="#E" transform="matrix(1,0,0,1,612.2644805503666,965) translate(92.81364197530864 26.52777777777778)"/><use xlink:href="#B" transform="matrix(1,0,0,1,612.2644805503666,965) translate(45.37537037037037 53.19444444444445)"/></g><path d="M1017.76 1144.6l.77 2.84 1.97 1.96 2.83.77h46.45v1h-46.58l-3.22-.87-2.34-2.35-.88-3.22v-85.4h1zm225.36 5.57v1h-127.96v-1z" stroke="#3a414a" stroke-width=".05" fill="#3a414a"/><path d="M1017.76 1059.35h-1v-.48l1-.06z" fill="#3a414a"/><path d="M1017.8 1059.38h-1.06v-.53l1.05-.07zm-1-.48v.43h.94v-.5z" stroke="#3a414a" stroke-width=".05" fill="#3a414a"/><path d="M1257.88 1150.67l-14.26 4.63v-9.27z" fill="#3a414a"/><path d="M1259.5 1150.67l-16.38 5.32v-10.66zm-15.38 3.94l12.14-3.93-12.14-3.95z" stroke="#3a414a" stroke-width=".05" fill="#3a414a"/><g><use xlink:href="#j" transform="matrix(1,0,0,1,1069.777946635685,1139.9999999999993) translate(0 14.222222222222223)"/></g><defs><path fill="#3a414a" d="M24-231v-30h32v30H24zM24 0v-190h32V0H24" id="F"/><path fill="#3a414a" d="M18-150v-26h174v26H18zm0 90v-26h174v26H18" id="G"/><path fill="#3a414a" d="M101-251c68 0 85 55 85 127S166 4 100 4C33 4 14-52 14-124c0-73 17-127 87-127zm-1 229c47 0 54-49 54-102s-4-102-53-102c-51 0-55 48-55 102 0 53 5 102 54 102" id="H"/><g id="a"><use transform="matrix(0.06172839506172839,0,0,0.06172839506172839,0,0)" xlink:href="#F"/><use transform="matrix(0.06172839506172839,0,0,0.06172839506172839,4.876543209876543,0)" xlink:href="#G"/><use transform="matrix(0.06172839506172839,0,0,0.06172839506172839,17.839506172839506,0)" xlink:href="#H"/></g><use transform="matrix(0.06172839506172839,0,0,0.06172839506172839,0,0)" xlink:href="#F" id="b"/><path fill="#3a414a" d="M18-100v-36l175-74v27L42-118l151 64v27" id="I"/><use transform="matrix(0.06172839506172839,0,0,0.06172839506172839,0,0)" xlink:href="#I" id="c"/><path fill="#3a414a" d="M54-142c48-35 137-8 131 61C196 18 31 33 14-55l32-4c7 23 22 37 52 37 35-1 51-22 54-58 4-55-73-65-99-34H22l8-134h141v27H59" id="J"/><use transform="matrix(0.06172839506172839,0,0,0.06172839506172839,0,0)" xlink:href="#J" id="d"/><path fill="#333" d="M136-208V0H84v-208H4v-40h212v40h-80" id="K"/><path fill="#333" d="M135-150c-39-12-60 13-60 57V0H25l-1-190h47c2 13-1 29 3 40 6-28 27-53 61-41v41" id="L"/><path fill="#333" d="M85 4C-2 5 27-109 22-190h50c7 57-23 150 33 157 60-5 35-97 40-157h50l1 190h-47c-2-12 1-28-3-38-12 25-28 42-61 42" id="M"/><path fill="#333" d="M185-48c-13 30-37 53-82 52C43 2 14-33 14-96s30-98 90-98c62 0 83 45 84 108H66c0 31 8 55 39 56 18 0 30-7 34-22zm-45-69c5-46-57-63-70-21-2 6-4 13-4 21h74" id="N"/><g id="e"><use transform="matrix(0.04938271604938272,0,0,0.04938271604938272,0,0)" xlink:href="#K"/><use transform="matrix(0.04938271604938272,0,0,0.04938271604938272,9.82716049382716,0)" xlink:href="#L"/><use transform="matrix(0.04938271604938272,0,0,0.04938271604938272,16.74074074074074,0)" xlink:href="#M"/><use transform="matrix(0.04938271604938272,0,0,0.04938271604938272,27.555555555555557,0)" xlink:href="#N"/></g><path fill="#3a414a" d="M177-190C167-65 218 103 67 71c-23-6-38-20-44-43l32-5c15 47 100 32 89-28v-30C133-14 115 1 83 1 29 1 15-40 15-95c0-56 16-97 71-98 29-1 48 16 59 35 1-10 0-23 2-32h30zM94-22c36 0 50-32 50-73 0-42-14-75-50-75-39 0-46 34-46 75s6 73 46 73" id="O"/><path fill="#3a414a" d="M84 4C-5 8 30-112 23-190h32v120c0 31 7 50 39 49 72-2 45-101 50-169h31l1 190h-30c-1-10 1-25-2-33-11 22-28 36-60 37" id="P"/><path fill="#3a414a" d="M100-194c63 0 86 42 84 106H49c0 40 14 67 53 68 26 1 43-12 49-29l28 8c-11 28-37 45-77 45C44 4 14-33 15-96c1-61 26-98 85-98zm52 81c6-60-76-77-97-28-3 7-6 17-6 28h103" id="Q"/><path fill="#3a414a" d="M135-143c-3-34-86-38-87 0 15 53 115 12 119 90S17 21 10-45l28-5c4 36 97 45 98 0-10-56-113-15-118-90-4-57 82-63 122-42 12 7 21 19 24 35" id="R"/><g id="f"><use transform="matrix(0.06172839506172839,0,0,0.06172839506172839,0,0)" xlink:href="#O"/><use transform="matrix(0.06172839506172839,0,0,0.06172839506172839,12.345679012345679,0)" xlink:href="#P"/><use transform="matrix(0.06172839506172839,0,0,0.06172839506172839,24.691358024691358,0)" xlink:href="#Q"/><use transform="matrix(0.06172839506172839,0,0,0.06172839506172839,37.03703703703704,0)" xlink:href="#R"/><use transform="matrix(0.06172839506172839,0,0,0.06172839506172839,48.14814814814815,0)" xlink:href="#R"/></g><g id="g"><use transform="matrix(0.06172839506172839,0,0,0.06172839506172839,0,0)" xlink:href="#F"/><use transform="matrix(0.06172839506172839,0,0,0.06172839506172839,4.876543209876543,0)" xlink:href="#R"/></g><path fill="#3a414a" d="M96-169c-40 0-48 33-48 73s9 75 48 75c24 0 41-14 43-38l32 2c-6 37-31 61-74 61-59 0-76-41-82-99-10-93 101-131 147-64 4 7 5 14 7 22l-32 3c-4-21-16-35-41-35" id="S"/><path fill="#3a414a" d="M100-194c62-1 85 37 85 99 1 63-27 99-86 99S16-35 15-95c0-66 28-99 85-99zM99-20c44 1 53-31 53-75 0-43-8-75-51-75s-53 32-53 75 10 74 51 75" id="T"/><path fill="#3a414a" d="M114-163C36-179 61-72 57 0H25l-1-190h30c1 12-1 29 2 39 6-27 23-49 58-41v29" id="U"/><path fill="#3a414a" d="M59-47c-2 24 18 29 38 22v24C64 9 27 4 27-40v-127H5v-23h24l9-43h21v43h35v23H59v120" id="V"/><g id="h"><use transform="matrix(0.06172839506172839,0,0,0.06172839506172839,0,0)" xlink:href="#S"/><use transform="matrix(0.06172839506172839,0,0,0.06172839506172839,11.11111111111111,0)" xlink:href="#T"/><use transform="matrix(0.06172839506172839,0,0,0.06172839506172839,23.45679012345679,0)" xlink:href="#U"/><use transform="matrix(0.06172839506172839,0,0,0.06172839506172839,30.80246913580247,0)" xlink:href="#U"/><use transform="matrix(0.06172839506172839,0,0,0.06172839506172839,38.148148148148145,0)" xlink:href="#Q"/><use transform="matrix(0.06172839506172839,0,0,0.06172839506172839,50.49382716049382,0)" xlink:href="#S"/><use transform="matrix(0.06172839506172839,0,0,0.06172839506172839,61.60493827160494,0)" xlink:href="#V"/></g><path fill="#3a414a" d="M117-194c89-4 53 116 60 194h-32v-121c0-31-8-49-39-48C34-167 62-67 57 0H25l-1-190h30c1 10-1 24 2 32 11-22 29-35 61-36" id="W"/><path fill="#3a414a" d="M85-194c31 0 48 13 60 33l-1-100h32l1 261h-30c-2-10 0-23-3-31C134-8 116 4 85 4 32 4 16-35 15-94c0-66 23-100 70-100zm9 24c-40 0-46 34-46 75 0 40 6 74 45 74 42 0 51-32 51-76 0-42-9-74-50-73" id="X"/><g id="i"><use transform="matrix(0.06172839506172839,0,0,0.06172839506172839,0,0)" xlink:href="#Q"/><use transform="matrix(0.06172839506172839,0,0,0.06172839506172839,12.345679012345679,0)" xlink:href="#W"/><use transform="matrix(0.06172839506172839,0,0,0.06172839506172839,24.691358024691358,0)" xlink:href="#X"/></g><path fill="#333" d="M76-208v77h127v40H76V0H24v-248h183v40H76" id="Y"/><path fill="#333" d="M133-34C117-15 103 5 69 4 32 3 11-16 11-54c-1-60 55-63 116-61 1-26-3-47-28-47-18 1-26 9-28 27l-52-2c7-38 36-58 82-57s74 22 75 68l1 82c-1 14 12 18 25 15v27c-30 8-71 5-69-32zm-48 3c29 0 43-24 42-57-32 0-66-3-65 30 0 17 8 27 23 27" id="Z"/><path fill="#333" d="M25 0v-261h50V0H25" id="aa"/><path fill="#333" d="M137-138c1-29-70-34-71-4 15 46 118 7 119 86 1 83-164 76-172 9l43-7c4 19 20 25 44 25 33 8 57-30 24-41C81-84 22-81 20-136c-2-80 154-74 161-7" id="ab"/><g id="j"><use transform="matrix(0.04938271604938272,0,0,0.04938271604938272,0,0)" xlink:href="#Y"/><use transform="matrix(0.04938271604938272,0,0,0.04938271604938272,10.814814814814815,0)" xlink:href="#Z"/><use transform="matrix(0.04938271604938272,0,0,0.04938271604938272,20.69135802469136,0)" xlink:href="#aa"/><use transform="matrix(0.04938271604938272,0,0,0.04938271604938272,25.629629629629633,0)" xlink:href="#ab"/><use transform="matrix(0.04938271604938272,0,0,0.04938271604938272,35.50617283950618,0)" xlink:href="#N"/></g><path fill="#3a414a" d="M24 0v-261h32V0H24" id="ac"/><g id="k"><use transform="matrix(0.06172839506172839,0,0,0.06172839506172839,0,0)" xlink:href="#ac"/><use transform="matrix(0.06172839506172839,0,0,0.06172839506172839,4.876543209876543,0)" xlink:href="#Q"/><use transform="matrix(0.06172839506172839,0,0,0.06172839506172839,17.22222222222222,0)" xlink:href="#V"/><use transform="matrix(0.06172839506172839,0,0,0.06172839506172839,23.39506172839506,0)" xlink:href="#V"/><use transform="matrix(0.06172839506172839,0,0,0.06172839506172839,29.5679012345679,0)" xlink:href="#Q"/><use transform="matrix(0.06172839506172839,0,0,0.06172839506172839,41.913580246913575,0)" xlink:href="#U"/></g><use transform="matrix(0.06172839506172839,0,0,0.06172839506172839,0,0)" xlink:href="#F" id="l"/><path fill="#3a414a" d="M101-234c-31-9-42 10-38 44h38v23H63V0H32v-167H5v-23h27c-7-52 17-82 69-68v24" id="ad"/><g id="m"><use transform="matrix(0.06172839506172839,0,0,0.06172839506172839,0,0)" xlink:href="#T"/><use transform="matrix(0.06172839506172839,0,0,0.06172839506172839,12.345679012345679,0)" xlink:href="#ad"/></g><g id="n"><use transform="matrix(0.06172839506172839,0,0,0.06172839506172839,0,0)" xlink:href="#O"/><use transform="matrix(0.06172839506172839,0,0,0.06172839506172839,12.345679012345679,0)" xlink:href="#P"/><use transform="matrix(0.06172839506172839,0,0,0.06172839506172839,24.691358024691358,0)" xlink:href="#Q"/><use transform="matrix(0.06172839506172839,0,0,0.06172839506172839,37.03703703703704,0)" xlink:href="#R"/><use transform="matrix(0.06172839506172839,0,0,0.06172839506172839,48.14814814814815,0)" xlink:href="#R"/></g><path fill="#3a414a" d="M115-194c55 1 70 41 70 98S169 2 115 4C84 4 66-9 55-30l1 105H24l-1-265h31l2 30c10-21 28-34 59-34zm-8 174c40 0 45-34 45-75s-6-73-45-74c-42 0-51 32-51 76 0 43 10 73 51 73" id="ae"/><g id="o"><use transform="matrix(0.06172839506172839,0,0,0.06172839506172839,0,0)" xlink:href="#S"/><use transform="matrix(0.06172839506172839,0,0,0.06172839506172839,11.11111111111111,0)" xlink:href="#T"/><use transform="matrix(0.06172839506172839,0,0,0.06172839506172839,23.45679012345679,0)" xlink:href="#U"/><use transform="matrix(0.06172839506172839,0,0,0.06172839506172839,30.80246913580247,0)" xlink:href="#U"/><use transform="matrix(0.06172839506172839,0,0,0.06172839506172839,38.148148148148145,0)" xlink:href="#Q"/><use transform="matrix(0.06172839506172839,0,0,0.06172839506172839,50.49382716049382,0)" xlink:href="#R"/><use transform="matrix(0.06172839506172839,0,0,0.06172839506172839,61.60493827160494,0)" xlink:href="#ae"/><use transform="matrix(0.06172839506172839,0,0,0.06172839506172839,73.95061728395062,0)" xlink:href="#T"/><use transform="matrix(0.06172839506172839,0,0,0.06172839506172839,86.2962962962963,0)" xlink:href="#W"/><use transform="matrix(0.06172839506172839,0,0,0.06172839506172839,98.64197530864199,0)" xlink:href="#X"/><use transform="matrix(0.06172839506172839,0,0,0.06172839506172839,110.98765432098767,0)" xlink:href="#R"/></g><g id="p"><use transform="matrix(0.06172839506172839,0,0,0.06172839506172839,0,0)" xlink:href="#V"/><use transform="matrix(0.06172839506172839,0,0,0.06172839506172839,6.172839506172839,0)" xlink:href="#T"/></g><g id="q"><use transform="matrix(0.06172839506172839,0,0,0.06172839506172839,0,0)" xlink:href="#ac"/><use transform="matrix(0.06172839506172839,0,0,0.06172839506172839,4.876543209876543,0)" xlink:href="#Q"/><use transform="matrix(0.06172839506172839,0,0,0.06172839506172839,17.22222222222222,0)" xlink:href="#V"/><use transform="matrix(0.06172839506172839,0,0,0.06172839506172839,23.39506172839506,0)" xlink:href="#V"/><use transform="matrix(0.06172839506172839,0,0,0.06172839506172839,29.5679012345679,0)" xlink:href="#Q"/><use transform="matrix(0.06172839506172839,0,0,0.06172839506172839,41.913580246913575,0)" xlink:href="#U"/></g><g id="r"><use transform="matrix(0.06172839506172839,0,0,0.06172839506172839,0,0)" xlink:href="#R"/><use transform="matrix(0.06172839506172839,0,0,0.06172839506172839,11.11111111111111,0)" xlink:href="#Q"/><use transform="matrix(0.06172839506172839,0,0,0.06172839506172839,23.45679012345679,0)" xlink:href="#S"/><use transform="matrix(0.06172839506172839,0,0,0.06172839506172839,34.5679012345679,0)" xlink:href="#U"/><use transform="matrix(0.06172839506172839,0,0,0.06172839506172839,41.913580246913575,0)" xlink:href="#Q"/><use transform="matrix(0.06172839506172839,0,0,0.06172839506172839,54.25925925925925,0)" xlink:href="#V"/></g><g id="s"><use transform="matrix(0.06172839506172839,0,0,0.06172839506172839,0,0)" xlink:href="#S"/><use transform="matrix(0.06172839506172839,0,0,0.06172839506172839,11.11111111111111,0)" xlink:href="#T"/><use transform="matrix(0.06172839506172839,0,0,0.06172839506172839,23.45679012345679,0)" xlink:href="#ac"/><use transform="matrix(0.06172839506172839,0,0,0.06172839506172839,28.333333333333336,0)" xlink:href="#T"/><use transform="matrix(0.06172839506172839,0,0,0.06172839506172839,40.67901234567901,0)" xlink:href="#P"/><use transform="matrix(0.06172839506172839,0,0,0.06172839506172839,53.02469135802469,0)" xlink:href="#U"/></g><g id="t"><use transform="matrix(0.06172839506172839,0,0,0.06172839506172839,0,0)" xlink:href="#O"/><use transform="matrix(0.06172839506172839,0,0,0.06172839506172839,12.345679012345679,0)" xlink:href="#U"/><use transform="matrix(0.06172839506172839,0,0,0.06172839506172839,19.691358024691358,0)" xlink:href="#Q"/><use transform="matrix(0.06172839506172839,0,0,0.06172839506172839,32.03703703703704,0)" xlink:href="#Q"/><use transform="matrix(0.06172839506172839,0,0,0.06172839506172839,44.382716049382715,0)" xlink:href="#W"/></g><use transform="matrix(0.06172839506172839,0,0,0.06172839506172839,0,0)" xlink:href="#F" id="u"/><g id="v"><use transform="matrix(0.06172839506172839,0,0,0.06172839506172839,0,0)" xlink:href="#T"/><use transform="matrix(0.06172839506172839,0,0,0.06172839506172839,12.345679012345679,0)" xlink:href="#ad"/></g><path fill="#3a414a" d="M141-36C126-15 110 5 73 4 37 3 15-17 15-53c-1-64 63-63 125-63 3-35-9-54-41-54-24 1-41 7-42 31l-33-3c5-37 33-52 76-52 45 0 72 20 72 64v82c-1 20 7 32 28 27v20c-31 9-61-2-59-35zM48-53c0 20 12 33 32 33 41-3 63-29 60-74-43 2-92-5-92 41" id="af"/><g id="w"><use transform="matrix(0.06172839506172839,0,0,0.06172839506172839,0,0)" xlink:href="#ae"/><use transform="matrix(0.06172839506172839,0,0,0.06172839506172839,12.345679012345679,0)" xlink:href="#af"/><use transform="matrix(0.06172839506172839,0,0,0.06172839506172839,24.691358024691358,0)" xlink:href="#U"/><use transform="matrix(0.06172839506172839,0,0,0.06172839506172839,32.03703703703704,0)" xlink:href="#V"/></g><path fill="#3a414a" d="M179-190L93 31C79 59 56 82 12 73V49c39 6 53-20 64-50L1-190h34L92-34l54-156h33" id="ag"/><path fill="#3a414a" d="M206 0h-36l-40-164L89 0H53L-1-190h32L70-26l43-164h34l41 164 42-164h31" id="ah"/><g id="x"><use transform="matrix(0.06172839506172839,0,0,0.06172839506172839,0,0)" xlink:href="#ag"/><use transform="matrix(0.06172839506172839,0,0,0.06172839506172839,11.11111111111111,0)" xlink:href="#Q"/><use transform="matrix(0.06172839506172839,0,0,0.06172839506172839,23.45679012345679,0)" xlink:href="#ac"/><use transform="matrix(0.06172839506172839,0,0,0.06172839506172839,28.333333333333336,0)" xlink:href="#ac"/><use transform="matrix(0.06172839506172839,0,0,0.06172839506172839,33.20987654320988,0)" xlink:href="#T"/><use transform="matrix(0.06172839506172839,0,0,0.06172839506172839,45.55555555555556,0)" xlink:href="#ah"/></g><use transform="matrix(0.06172839506172839,0,0,0.06172839506172839,0,0)" xlink:href="#G" id="y"/><path fill="#3a414a" d="M118-107v75H92v-75H18v-26h74v-75h26v75h74v26h-74" id="ai"/><path fill="#3a414a" d="M27 0v-27h64v-190l-56 39v-29l58-41h29v221h61V0H27" id="aj"/><g id="z"><use transform="matrix(0.06172839506172839,0,0,0.06172839506172839,0,0)" xlink:href="#F"/><use transform="matrix(0.06172839506172839,0,0,0.06172839506172839,4.876543209876543,0)" xlink:href="#ai"/><use transform="matrix(0.06172839506172839,0,0,0.06172839506172839,17.839506172839506,0)" xlink:href="#aj"/></g><g id="A"><use transform="matrix(0.06172839506172839,0,0,0.06172839506172839,0,0)" xlink:href="#F"/><use transform="matrix(0.06172839506172839,0,0,0.06172839506172839,4.876543209876543,0)" xlink:href="#W"/><use transform="matrix(0.06172839506172839,0,0,0.06172839506172839,17.22222222222222,0)" xlink:href="#ae"/><use transform="matrix(0.06172839506172839,0,0,0.06172839506172839,29.5679012345679,0)" xlink:href="#P"/><use transform="matrix(0.06172839506172839,0,0,0.06172839506172839,41.913580246913575,0)" xlink:href="#V"/></g><g id="B"><use transform="matrix(0.06172839506172839,0,0,0.06172839506172839,0,0)" xlink:href="#O"/><use transform="matrix(0.06172839506172839,0,0,0.06172839506172839,12.345679012345679,0)" xlink:href="#P"/><use transform="matrix(0.06172839506172839,0,0,0.06172839506172839,24.691358024691358,0)" xlink:href="#Q"/><use transform="matrix(0.06172839506172839,0,0,0.06172839506172839,37.03703703703704,0)" xlink:href="#R"/><use transform="matrix(0.06172839506172839,0,0,0.06172839506172839,48.14814814814815,0)" xlink:href="#R"/></g><g id="C"><use transform="matrix(0.06172839506172839,0,0,0.06172839506172839,0,0)" xlink:href="#ah"/><use transform="matrix(0.06172839506172839,0,0,0.06172839506172839,15.987654320987653,0)" xlink:href="#af"/><use transform="matrix(0.06172839506172839,0,0,0.06172839506172839,28.333333333333332,0)" xlink:href="#F"/><use transform="matrix(0.06172839506172839,0,0,0.06172839506172839,33.20987654320987,0)" xlink:href="#V"/></g><g id="D"><use transform="matrix(0.06172839506172839,0,0,0.06172839506172839,0,0)" xlink:href="#ad"/><use transform="matrix(0.06172839506172839,0,0,0.06172839506172839,6.172839506172839,0)" xlink:href="#T"/><use transform="matrix(0.06172839506172839,0,0,0.06172839506172839,18.51851851851852,0)" xlink:href="#U"/></g><path fill="#3a414a" d="M141 0L90-78 38 0H4l68-98-65-92h35l48 74 47-74h35l-64 92 68 98h-35" id="ak"/><g id="E"><use transform="matrix(0.06172839506172839,0,0,0.06172839506172839,0,0)" xlink:href="#W"/><use transform="matrix(0.06172839506172839,0,0,0.06172839506172839,12.345679012345679,0)" xlink:href="#Q"/><use transform="matrix(0.06172839506172839,0,0,0.06172839506172839,24.691358024691358,0)" xlink:href="#ak"/><use transform="matrix(0.06172839506172839,0,0,0.06172839506172839,35.80246913580247,0)" xlink:href="#V"/></g></defs></g></svg>